<svg fill="var(--text-color-2)" width="18" xmlns="http://www.w3.org/2000/svg" viewBox="0 0 64.094 64.094"><path d="M58.62 11.504l-16.444-.47L44.147 0 19.974 1.719l3.501 9.018-18.001-.393 1.8 5.4 6.036-.216-3.002 45.4 44.666 3.166-2.098-49.922-.069-.059 5.167-.185.646-2.424zM40.206 4.469l-2.849 6.571-11.012-.241-.563-6.842 14.424.512zm9.352 53.625l-33.581.574-.498-43.218 35.198-1.261-1.119 43.905zM26.49 20.045l-4.596 1.176-.438 30.179 2.118.769 2.916-32.124zm11.185 32.049l-5.236-31.749-2.224-.357 3.069 31.086 4.391 1.02zm6.232 0l.983-32.875-4.685 1.358 1.512 32.142 2.19-.625z"/></svg>