<svg data-name="Layer 1" xmlns="http://www.w3.org/2000/svg"  width="18" height="18"  viewBox="0 0 54 54"><path d="M57.85 19.57c.78-1.06 1.1-2.22.66-2.93a52.27 52.27 0 00-7.59-6.32 3.87 3.87 0 00-3.91.41c-.78.72-6.41 9.27-6.41 9.27a14.58 14.58 0 01-1.09-3.66 86.5 86.5 0 00-2-8.43c-.31-.44-1.91-.32-3.13 0s-9 1.93-15.06 3.43-13.25 3.39-13.4 3.51-.63 4.94-.63 5.1c0 .47 4 13.25 6.13 19.75s4.78 15 5.62 16.12 3.06.41 9.59-1.56 14.63-4.12 18-5.37 2.88-2.91 2.66-4-2-7.13-2-7.13a11.69 11.69 0 011.78-3c1.5-2.16 10-14.12 10.78-15.19zm-13.59-1.31c4-5.37 4.69-6.34 5.19-6.19a33 33 0 013.43 2.28c.85.6 1.1 1 1 1.1S43.45 28.32 42.26 30s-1.81 2.84-2 2.87-.91-.75-1.16-.87-.9-.38-.81-.53 9.78-13 11.41-15 1.9-2.1 1.78-2.32-.72-.84-1-.62-10.16 13.07-11.22 14.7a10.94 10.94 0 01-2.41 2.87c-.18 0-2.9-.18-2.62-.4 0 0 6.06-7.06 10.03-12.44zm-1.84 20.38c-.1.15-3.44 1.87-3.63 1.62A3 3 0 0037.51 39c-.88-.44-2.78-1.31-3.19-1.44s-1 0-1-.06-.06-4.94 0-5.19c.18-.46 3.63-.72 5.94 1.47a10.34 10.34 0 013.16 4.86zM26.6 49.76c-2.09.59-6.65 2.28-7 1.91s-3.46-9.41-5.46-16.35S8.92 16.7 9 16.35s10.65-2.9 14.65-4 12-2.81 12.1-2.71S39.13 21.92 39.07 22s-6.15 7.78-6.75 8.41a1.06 1.06 0 00-.06 1.34s.31.19.16 1.81-.85 8.72-.32 9.47.88.94 2.1.47 9-4.12 9.15-4a62.21 62.21 0 011.88 6.41c-.03.16-16.53 3.26-18.63 3.85zM45.2 34a6.45 6.45 0 00-.75-2.6c-.28-.12-.66.5-.66.79s.75 2.25.69 2.59a2.67 2.67 0 01-.25.69 25.67 25.67 0 00-.94-2.94c-.12 0-.69.47-.66.87s1 2.85 1 2.85-.28.72-.4.44a12.77 12.77 0 00-2-3C41 33.5 49 23 51.57 19.85s3.1-3.56 3.28-3.59 1.66 1.22 1.47 1.78-9.25 13.44-10.09 14.5S45.2 34.48 45.2 34zM31.26 15.89c.25-.13.22-.79-.09-1s-2.75.53-9.47 2.15-8.23 2.81-8.25 2.96c-.1.44.22.94.53.94A78 78 0 0121.76 18c4.06-1 9.24-2 9.5-2.11zm2.94 5.93c.4-.12.06-1-.16-1.12a57.49 57.49 0 00-8 2.09c-4 1.25-10 3.06-10.09 3.41s-.07.87.37.94 2.88-1 7.81-2.57S33.79 22 34.2 21.82zM29 31.17a17.18 17.18 0 00-3.81.31c-1.88.22-7.39 1.06-7.63 1.53s0 1 .44 1 .75-.06 4.09-1a44.5 44.5 0 017-1.34c.42.03.29-.35-.09-.5zm-.81 6.22c.65-.16.4-.35.43-.5s-.78-.29-3.75.37S20 38.7 19.6 39.17a.59.59 0 00.19.87c.25.06.31-.09 3.06-1.25a21 21 0 015.32-1.4zm-3 5.68a15.45 15.45 0 00-4 1.41.7.7 0 00.18.81 14.59 14.59 0 002.94-.84c1.22-.44 5.19-1.6 5-1.72a12.5 12.5 0 00-4.11.34z" fill="var(--text-color-2)"/></svg>