<svg xmlns="http://www.w3.org/2000/svg" width="18" height="18" viewBox="0 0 25.525 25.525"><path d="M8.602 15.186l-1.466 5.119 5.12-1.465 9.878-9.877-3.653-3.655-9.879 9.878zm10.377-7.647a.557.557 0 010 .787l-7.723 7.722a.556.556 0 11-.786-.787l7.721-7.722a.56.56 0 01.788 0zm6.546-1.987l-2.416 2.417-3.646-3.645 2.418-2.417 3.644 3.645zM15.471 17.891l1.813-1.813v7.539H0V6.563l5.122-4.35h12.163v2.288l-1.813 1.844V3.744H7.064v4.487H1.811v13.856H15.47l.001-4.196z" fill="var(--text-color-2)" /></svg>